# xmcd
#
# Track frame offsets: 
#        150
#        15740
#        29487
#        42070
#        53690
#        65095
#        78162
#        95825
#        110217
#        119400
#
# Disc length: 1790 seconds
#
# Revision: 4
# Processed by: cddbd v1.5.2PL0 Copyright (c) Steve Scherf et al.
# Submitted via: ExactAudioCopyFreeDBPlugin 1.0
#
DISCID=8606fc0a
DTITLE=Louis Armstrong - Greatest Hits
DYEAR=1994
DGENRE=Jazz
TTITLE0=Mack The Knife
TTITLE1=Ain't Misbehavin'
TTITLE2=C'est si bon
TTITLE3=Tiger Rag
TTITLE4=Hello Dolly
TTITLE5=St. Louis Blues
TTITLE6=Cabaret
TTITLE7=When The Saints Go Marchin' In
TTITLE8=Muskrat Ramble
TTITLE9=Blueberry Hill
EXTD=YEAR: 1994 ID3G: 8
EXTT0=
EXTT1=
EXTT2=
EXTT3=
EXTT4=
EXTT5=
EXTT6=
EXTT7=
EXTT8=
EXTT9=
PLAYORDER=
